# This file uses meters as units for non-parametric coordinates.

g default
v 0.000000 470.058594 179.037888
v -0.429372 470.058594 179.466797
v -0.000000 470.058594 179.895706
v 0.429372 470.058594 179.466797
v 0.000000 2217.312500 179.037888
v -0.429372 2217.312500 179.466797
v -0.000000 2217.312500 179.895706
v 0.429372 2217.312500 179.466797
v 0.000000 470.058594 179.466797
v 0.000000 2217.312500 179.466797
v 63.070740 352.433594 178.947388
v 62.468327 352.433594 179.142685
v 62.468327 352.433594 179.775284
v 63.070740 352.433594 179.972534
v 63.443356 352.433594 179.458984
v 0.101311 470.410156 179.043091
v -0.388874 470.410156 179.201279
v -0.388874 470.410156 179.716690
v 0.101311 470.410156 179.876831
v 0.404278 470.410156 179.458984
v 58.144917 342.166016 160.221176
v 49.411385 342.701172 143.048233
v 35.809193 343.535156 129.419174
v 18.668594 344.587891 120.670036
v -0.331760 345.753906 117.653824
v -19.332047 346.917969 120.670036
v -36.472523 347.972656 129.419174
v -50.074959 348.804688 143.048233
v -58.808487 349.343750 160.221176
v -61.817860 349.527344 179.255859
v -58.808487 349.343750 198.293472
v -50.074959 348.804688 215.464478
v -36.472523 347.972656 229.094498
v -19.332047 346.917969 237.844604
v -0.331762 345.753906 240.857880
v 18.668594 344.587891 237.844604
v 35.808949 343.535156 229.094498
v 49.411385 342.701172 215.464478
v 58.144917 342.166016 198.293472
v 61.154289 341.980469 179.255859
v 61.242561 341.974609 159.211487
v 52.046322 342.539063 141.129990
v 37.723282 343.417969 126.778862
v 19.674984 344.525391 117.566528
v -0.331762 345.753906 114.391602
v -20.338558 346.980469 117.566528
v -38.386612 348.089844 126.778862
v -52.709896 348.968750 141.129990
v -61.906136 349.531250 159.211487
v -65.074707 349.726563 179.255859
v -61.906136 349.531250 199.301208
v -52.709896 348.968750 217.382721
v -38.386612 348.089844 231.732849
v -20.338558 346.980469 240.947144
v -0.331764 345.753906 244.121094
v 19.674984 344.525391 240.947144
v 37.723282 343.417969 231.732849
v 52.046322 342.539063 217.382721
v 61.242561 341.974609 199.301208
v 64.411133 341.781250 179.255859
v 61.906136 352.789063 159.211487
v 52.709896 353.351563 141.129990
v 38.386612 354.230469 126.778862
v 20.338558 355.339844 117.566528
v 0.331762 356.566406 114.391602
v -19.674984 357.792969 117.566528
v -37.723282 358.902344 126.778862
v -52.046322 359.781250 141.129990
v -61.242561 360.343750 159.211487
v -64.411133 360.539063 179.255859
v -61.242561 360.343750 199.301208
v -52.046322 359.781250 217.382721
v -37.723282 358.902344 231.732849
v -19.674984 357.792969 240.947144
v 0.331760 356.566406 244.121094
v 20.338558 355.339844 240.947144
v 38.386612 354.230469 231.732849
v 52.709896 353.351563 217.382721
v 61.906136 352.789063 199.301208
v 65.074707 352.593750 179.255859
v 58.808487 352.976563 160.221176
v 50.074959 353.515625 143.048233
v 36.472523 354.347656 129.419174
v 19.332047 355.402344 120.670036
v 0.331764 356.566406 117.653824
v -18.668594 357.734375 120.670036
v -35.808949 358.785156 129.419174
v -49.411385 359.617188 143.048233
v -58.144917 360.156250 160.221176
v -61.154289 360.339844 179.255859
v -58.144917 360.156250 198.293472
v -49.411385 359.617188 215.464478
v -35.808949 358.785156 229.094498
v -18.668594 357.734375 237.844604
v 0.331762 356.566406 240.857880
v 19.332047 355.402344 237.844604
v 36.472523 354.347656 229.094498
v 50.074959 353.515625 215.464478
v 58.808487 352.976563 198.293472
v 61.817860 352.792969 179.255859
v 42.993652 254.191406 134.400192
v 42.224903 254.191406 135.168945
v 42.993652 254.191406 135.938675
v 43.762402 254.191406 135.168945
v 42.993652 350.747559 134.400192
v 42.224903 350.747559 135.168945
v 42.993652 350.747559 135.938675
v 43.762402 350.747559 135.168945
v -0.432021 471.082031 179.183594
v -0.711226 470.105469 179.707031
v -0.035625 470.019531 178.656250
v 0.208860 471.117218 179.593750
v -0.070342 470.140656 180.115234
v 0.605260 470.054688 179.066406
v -0.713402 470.382843 178.976563
v 0.568367 470.457031 179.796875
v 9.911499 280.996094 240.108200
v 9.142749 280.996094 240.876968
v 9.911499 280.996094 241.643768
v 10.680188 280.996094 240.876968
v 9.911499 350.747559 240.108200
v 9.142749 350.747559 240.876968
v 9.911499 350.747559 241.643768
v 10.680188 350.747559 240.876968
v -62.492252 360.292969 178.947388
v -63.094666 360.292969 179.142685
v -63.094666 360.292969 179.775284
v -62.492252 360.292969 179.972534
v -62.119629 360.292969 179.458984
v 0.083512 470.257813 179.082153
v -0.359367 470.257813 179.226669
v -0.359367 470.257813 179.691299
v 0.083512 470.257813 179.835815
v 0.357224 470.257813 179.458984
v 0.166600 355.156250 241.933731
v -0.436165 355.156250 242.129013
v -0.436165 355.156250 242.763565
v 0.166600 355.156250 242.958862
v 0.539131 355.156250 242.445297
v 0.143698 470.378937 179.105591
v -0.339149 470.378937 179.263779
v -0.339149 470.378937 179.771378
v 0.143698 470.378937 179.927612
v 0.442116 470.378937 179.517578
v 0.166600 355.156250 115.178825
v -0.436165 355.156250 115.374138
v -0.436165 355.156250 116.007713
v 0.166600 355.156250 116.203987
v 0.539131 355.156250 115.691414
v 0.116979 470.335968 179.154419
v -0.225967 470.335968 179.265732
v -0.225967 470.335968 179.626846
v 0.116978 470.335968 179.738159
v 0.328932 470.335968 179.445313
v -27.002932 231.980469 121.720505
v -27.771679 231.980469 122.489265
v -27.002932 231.980469 123.258003
v -26.234425 231.980469 122.489265
v -27.002932 350.747559 121.720505
v -27.771679 350.747559 122.489265
v -27.002932 350.747559 123.258003
v -26.234425 350.747559 122.489265
vt 0.054294 0.060225
vt 0.050988 0.060225
vt 0.050988 0.940306
vt 0.054294 0.940306
vt 0.047682 0.060225
vt 0.047682 0.940306
vt 0.050988 0.060225
vt 0.050988 0.940306
vt 0.050988 0.060225
vt 0.050988 0.940306
vt 0.055622 0.073218
vt 0.054117 0.073218
vt 0.053665 0.933907
vt 0.054884 0.933907
vt 0.049240 0.073218
vt 0.049692 0.933907
vt 0.047720 0.073218
vt 0.048458 0.933907
vt 0.051678 0.073218
vt 0.051678 0.933907
vt 0.264595 0.557597
vt 0.212071 0.584372
vt 0.206766 0.576989
vt 0.261823 0.548939
vt 0.170416 0.626042
vt 0.163086 0.620667
vt 0.143618 0.678538
vt 0.134991 0.675680
vt 0.134363 0.736770
vt 0.125275 0.736722
vt 0.143589 0.795023
vt 0.134928 0.797789
vt 0.170380 0.847544
vt 0.163002 0.852858
vt 0.212088 0.889229
vt 0.206716 0.896562
vt 0.264642 0.915949
vt 0.261800 0.924583
vt 0.322859 0.925097
vt 0.322821 0.934187
vt 0.381014 0.915833
vt 0.383786 0.924488
vt 0.433529 0.889144
vt 0.438826 0.896527
vt 0.475251 0.847511
vt 0.482568 0.852896
vt 0.502052 0.794989
vt 0.510679 0.797849
vt 0.511276 0.736763
vt 0.520368 0.736805
vt 0.502066 0.678511
vt 0.510722 0.675742
vt 0.475275 0.625973
vt 0.482646 0.620659
vt 0.433547 0.584316
vt 0.438922 0.576984
vt 0.381036 0.557614
vt 0.383874 0.548979
vt 0.322817 0.548376
vt 0.322862 0.539289
vt 0.188287 0.551790
vt 0.252040 0.519246
vt 0.137747 0.602386
vt 0.105232 0.666105
vt 0.094011 0.736828
vt 0.105242 0.807577
vt 0.137798 0.871347
vt 0.188467 0.921943
vt 0.252310 0.954362
vt 0.322999 0.965426
vt 0.393550 0.954160
vt 0.457257 0.921763
vt 0.507907 0.871205
vt 0.540440 0.807405
vt 0.551627 0.736688
vt 0.540419 0.665954
vt 0.507843 0.602157
vt 0.457147 0.551602
vt 0.393397 0.519216
vt 0.322742 0.508034
vt 0.228644 0.606984
vt 0.273355 0.584225
vt 0.193134 0.642457
vt 0.170303 0.687143
vt 0.162401 0.736689
vt 0.170225 0.786253
vt 0.192992 0.830978
vt 0.228466 0.866473
vt 0.273166 0.889244
vt 0.322702 0.897071
vt 0.372267 0.889202
vt 0.417008 0.866493
vt 0.452534 0.831078
vt 0.475355 0.786409
vt 0.483244 0.736850
vt 0.475430 0.687275
vt 0.452671 0.642557
vt 0.417191 0.607083
vt 0.372484 0.584301
vt 0.322912 0.576412
vt 0.061099 0.061391
vt 0.055173 0.061391
vt 0.055173 0.948150
vt 0.061099 0.948150
vt 0.049240 0.061391
vt 0.049240 0.948150
vt 0.055173 0.061391
vt 0.055173 0.948150
vt 0.053801 0.938808
vt 0.049766 0.931684
vt 0.046620 0.931940
vt 0.050640 0.939064
vt 0.057866 0.931056
vt 0.054705 0.931314
vt 0.055397 0.933707
vt 0.049074 0.934249
vt 0.061034 0.061439
vt 0.055108 0.061439
vt 0.055108 0.936341
vt 0.061034 0.936341
vt 0.049197 0.061439
vt 0.049197 0.936341
vt 0.055108 0.061439
vt 0.055108 0.936341
vt 0.055622 0.130556
vt 0.054117 0.130556
vt 0.053469 0.932795
vt 0.054583 0.932795
vt 0.049240 0.130556
vt 0.049888 0.932795
vt 0.047720 0.130556
vt 0.048774 0.932795
vt 0.051678 0.130556
vt 0.051678 0.932795
vt 0.058454 0.074161
vt 0.058156 0.071534
vt 0.052832 0.928697
vt 0.053073 0.930825
vt 0.057188 0.062997
vt 0.052057 0.921868
vt 0.056890 0.060370
vt 0.051818 0.919767
vt 0.057674 0.067279
vt 0.052444 0.925282
vt 0.051489 0.061025
vt 0.051312 0.063683
vt 0.051160 0.945427
vt 0.051260 0.943912
vt 0.050739 0.072307
vt 0.050833 0.950343
vt 0.050562 0.074978
vt 0.050733 0.951858
vt 0.051025 0.068001
vt 0.050997 0.947872
vt 0.062322 0.077266
vt 0.056397 0.077266
vt 0.056397 0.928910
vt 0.062322 0.928910
vt 0.050471 0.077266
vt 0.050471 0.928910
vt 0.056397 0.077266
vt 0.056397 0.928910
vn -0.706722 0.000000 -0.707491
vn -0.706722 0.000000 -0.707491
vn -0.706722 0.000000 -0.707491
vn -0.706722 0.000000 -0.707491
vn -0.706722 0.000000 0.707491
vn -0.706722 0.000000 0.707491
vn -0.706722 0.000000 0.707491
vn -0.706722 0.000000 0.707491
vn 0.706722 0.000000 0.707491
vn 0.706722 0.000000 0.707491
vn 0.706722 0.000000 0.707491
vn 0.706722 0.000000 0.707491
vn 0.706722 0.000000 -0.707491
vn 0.706722 0.000000 -0.707491
vn 0.706722 0.000000 -0.707491
vn 0.706722 0.000000 -0.707491
vn 0.000000 -1.000000 -0.000035
vn 0.000000 -1.000000 0.000022
vn 0.000000 -1.000000 -0.000006
vn 0.000000 -1.000000 -0.000035
vn 0.000000 -1.000000 0.000022
vn 0.000000 1.000000 -0.000015
vn 0.000000 1.000000 -0.000015
vn 0.000000 1.000000 -0.000060
vn 0.000000 1.000000 -0.000105
vn 0.000000 1.000000 -0.000105
vn -0.303790 -0.161387 -0.938971
vn -0.303790 -0.161387 -0.938971
vn -0.303790 -0.161387 -0.938971
vn -0.303790 -0.161387 -0.938971
vn -0.882555 -0.470209 0.000000
vn -0.882555 -0.470209 0.000000
vn -0.882555 -0.470209 0.000000
vn -0.882555 -0.470209 0.000000
vn -0.306744 -0.162963 0.937737
vn -0.306744 -0.162963 0.937737
vn -0.306744 -0.162963 0.937737
vn -0.306744 -0.162963 0.937737
vn 0.742958 0.396975 0.538910
vn 0.742959 0.396975 0.538910
vn 0.742959 0.396975 0.538910
vn 0.742959 0.396975 0.538910
vn 0.742037 0.396498 -0.540528
vn 0.742037 0.396498 -0.540528
vn 0.742037 0.396498 -0.540528
vn 0.742037 0.396498 -0.540528
vn -0.061417 -0.998112 0.000080
vn -0.061367 -0.998115 0.000083
vn -0.061367 -0.998115 0.000083
vn -0.061417 -0.998112 0.000080
vn -0.061277 -0.998121 0.000040
vn -0.061277 -0.998121 0.000040
vn -0.061295 -0.998120 0.000079
vn -0.061295 -0.998120 0.000079
vn -0.061241 -0.998123 -0.000010
vn -0.061241 -0.998123 -0.000010
vn -0.061290 -0.998120 -0.000066
vn -0.061290 -0.998120 -0.000066
vn -0.061409 -0.998113 -0.000143
vn -0.061409 -0.998113 -0.000143
vn -0.061333 -0.998117 -0.000118
vn -0.061333 -0.998117 -0.000118
vn -0.060996 -0.998138 0.000058
vn -0.060996 -0.998138 0.000058
vn -0.060757 -0.998153 0.000000
vn -0.060757 -0.998153 -0.000000
vn -0.060996 -0.998138 -0.000057
vn -0.060996 -0.998138 -0.000057
vn -0.061333 -0.998117 0.000117
vn -0.061333 -0.998117 0.000117
vn -0.061410 -0.998113 0.000144
vn -0.061410 -0.998113 0.000144
vn -0.061290 -0.998120 0.000064
vn -0.061290 -0.998120 0.000064
vn -0.061240 -0.998123 0.000003
vn -0.061240 -0.998123 0.000003
vn -0.061295 -0.998120 -0.000082
vn -0.061295 -0.998120 -0.000082
vn -0.061275 -0.998121 -0.000040
vn -0.061275 -0.998121 -0.000040
vn -0.061366 -0.998115 -0.000081
vn -0.061366 -0.998115 -0.000081
vn -0.061417 -0.998112 -0.000080
vn -0.061417 -0.998112 -0.000080
vn -0.061353 -0.998116 0.000000
vn -0.061353 -0.998116 -0.000000
vn 0.949269 -0.058252 -0.309023
vn 0.807503 -0.049551 -0.587778
vn 0.807507 -0.049551 -0.587774
vn 0.949270 -0.058252 -0.309019
vn 0.586678 -0.035997 -0.809020
vn 0.586672 -0.035997 -0.809024
vn 0.308421 -0.018924 -0.951062
vn 0.308417 -0.018923 -0.951063
vn 0.000006 0.000000 -1.000000
vn 0.000013 -0.000000 -1.000000
vn -0.308417 0.018925 -0.951063
vn -0.308419 0.018925 -0.951062
vn -0.586677 0.035998 -0.809021
vn -0.586686 0.035999 -0.809014
vn -0.807503 0.049553 -0.587779
vn -0.807497 0.049553 -0.587787
vn -0.949270 0.058258 -0.309018
vn -0.949269 0.058258 -0.309023
vn -0.998122 0.061256 0.000000
vn -0.998122 0.061256 0.000000
vn -0.949272 0.058258 0.309011
vn -0.949271 0.058258 0.309016
vn -0.807494 0.049553 0.587791
vn -0.807488 0.049552 0.587799
vn -0.586692 0.035999 0.809009
vn -0.586702 0.036000 0.809003
vn -0.308439 0.018926 0.951056
vn -0.308441 0.018927 0.951055
vn 0.000006 0.000000 1.000000
vn 0.000013 -0.000000 1.000000
vn 0.308443 -0.018925 0.951055
vn 0.308439 -0.018925 0.951056
vn 0.586694 -0.035998 0.809008
vn 0.586688 -0.035998 0.809012
vn 0.807495 -0.049550 0.587789
vn 0.807498 -0.049550 0.587785
vn 0.949271 -0.058252 0.309016
vn 0.949273 -0.058252 0.309011
vn 0.998122 -0.061250 0.000000
vn 0.998122 -0.061250 0.000000
vn 0.000012 -0.000000 -1.000000
vn 0.308395 -0.018921 -0.951070
vn 0.308405 -0.018922 -0.951067
vn 0.000007 -0.000000 -1.000000
vn 0.586708 -0.036003 -0.808998
vn 0.586700 -0.036002 -0.809004
vn 0.807500 -0.049557 -0.587782
vn 0.807501 -0.049557 -0.587781
vn 0.949267 -0.058257 -0.309028
vn 0.949270 -0.058257 -0.309018
vn 0.998122 -0.061255 -0.000000
vn 0.998122 -0.061255 -0.000000
vn 0.949265 -0.058257 0.309035
vn 0.949268 -0.058257 0.309026
vn 0.807509 -0.049557 0.587770
vn 0.807510 -0.049558 0.587768
vn 0.586675 -0.036001 0.809022
vn 0.586666 -0.036001 0.809028
vn 0.308442 -0.018924 0.951055
vn 0.308452 -0.018925 0.951052
vn 0.000012 -0.000000 1.000000
vn 0.000008 -0.000000 1.000000
vn -0.308449 0.018924 0.951053
vn -0.308442 0.018923 0.951055
vn -0.586687 0.035994 0.809014
vn -0.586684 0.035994 0.809016
vn -0.807506 0.049551 0.587775
vn -0.807507 0.049551 0.587773
vn -0.949264 0.058259 0.309036
vn -0.949263 0.058259 0.309040
vn -0.998122 0.061260 0.000000
vn -0.998122 0.061260 0.000000
vn -0.949267 0.058260 -0.309028
vn -0.949265 0.058260 -0.309032
vn -0.807495 0.049555 -0.587789
vn -0.807497 0.049555 -0.587787
vn -0.586719 0.036003 -0.808990
vn -0.586719 0.036003 -0.808990
vn -0.308405 0.018923 -0.951067
vn -0.308397 0.018923 -0.951070
vn -0.707112 0.000000 -0.707102
vn -0.707112 0.000000 -0.707102
vn -0.707112 0.000000 -0.707102
vn -0.707112 0.000000 -0.707102
vn -0.707558 0.000000 0.706655
vn -0.707558 0.000000 0.706655
vn -0.707558 0.000000 0.706655
vn -0.707558 0.000000 0.706655
vn 0.707558 0.000000 0.706655
vn 0.707558 0.000000 0.706655
vn 0.707558 0.000000 0.706655
vn 0.707558 0.000000 0.706655
vn 0.707112 0.000000 -0.707102
vn 0.707112 0.000000 -0.707102
vn 0.707112 0.000000 -0.707102
vn 0.707112 0.000000 -0.707102
vn -0.480763 0.516536 0.708560
vn -0.480763 0.516536 0.708560
vn -0.480764 0.516536 0.708560
vn -0.480764 0.516536 0.708560
vn 0.001840 -0.996568 0.082757
vn 0.001840 -0.996568 0.082757
vn 0.001840 -0.996568 0.082757
vn 0.001840 -0.996568 0.082757
vn 0.438014 0.525448 -0.729417
vn 0.438014 0.525448 -0.729416
vn 0.438014 0.525448 -0.729417
vn 0.438014 0.525448 -0.729417
vn -0.932539 0.336624 0.130600
vn -0.932539 0.336624 0.130600
vn -0.932539 0.336624 0.130600
vn -0.555710 -0.777783 -0.293666
vn -0.555710 -0.777783 -0.293666
vn -0.555710 -0.777783 -0.293666
vn -0.233103 0.361152 -0.902902
vn -0.233103 0.361152 -0.902902
vn -0.233103 0.361152 -0.902902
vn 0.240681 0.402768 0.883091
vn 0.240681 0.402768 0.883091
vn 0.240681 0.402768 0.883091
vn 0.562295 -0.711983 0.420599
vn 0.562295 -0.711983 0.420599
vn 0.562295 -0.711983 0.420599
vn 0.885654 0.424171 -0.188932
vn 0.885654 0.424171 -0.188932
vn 0.885654 0.424171 -0.188932
vn -0.707117 0.000000 -0.707096
vn -0.707117 0.000000 -0.707096
vn -0.707117 0.000000 -0.707096
vn -0.707117 0.000000 -0.707096
vn -0.706201 0.000000 0.708011
vn -0.706201 0.000000 0.708011
vn -0.706201 0.000000 0.708011
vn -0.706201 0.000000 0.708011
vn 0.706229 0.000000 0.707983
vn 0.706229 0.000000 0.707983
vn 0.706229 0.000000 0.707983
vn 0.706229 0.000000 0.707983
vn 0.707145 0.000000 -0.707068
vn 0.707145 0.000000 -0.707068
vn 0.707145 0.000000 -0.707068
vn 0.707145 0.000000 -0.707068
vn -0.304414 0.174381 -0.936442
vn -0.304414 0.174381 -0.936442
vn -0.304414 0.174381 -0.936442
vn -0.304414 0.174381 -0.936442
vn -0.868589 0.495534 0.000000
vn -0.868589 0.495534 0.000000
vn -0.868589 0.495534 0.000000
vn -0.868589 0.495534 0.000000
vn -0.305947 0.175262 0.935777
vn -0.305947 0.175262 0.935777
vn -0.305947 0.175262 0.935777
vn -0.305947 0.175262 0.935777
vn 0.735276 -0.417750 0.533717
vn 0.735276 -0.417750 0.533717
vn 0.735276 -0.417750 0.533717
vn 0.735276 -0.417750 0.533717
vn 0.734814 -0.417492 -0.534555
vn 0.734814 -0.417492 -0.534555
vn 0.734814 -0.417492 -0.534555
vn 0.734814 -0.417492 -0.534555
vn -0.274837 -0.460332 -0.844132
vn -0.274837 -0.460332 -0.844132
vn -0.274837 -0.460332 -0.844132
vn -0.274837 -0.460332 -0.844132
vn -1.000000 0.000842 -0.000000
vn -1.000000 0.000842 -0.000000
vn -1.000000 0.000842 -0.000000
vn -1.000000 0.000842 -0.000000
vn -0.273273 0.461613 0.843940
vn -0.273273 0.461613 0.843941
vn -0.273273 0.461613 0.843940
vn -0.273273 0.461613 0.843941
vn 0.770182 0.306222 0.559507
vn 0.770182 0.306222 0.559507
vn 0.770182 0.306222 0.559507
vn 0.770182 0.306222 0.559507
vn 0.770487 -0.305048 -0.559729
vn 0.770487 -0.305047 -0.559729
vn 0.770487 -0.305048 -0.559729
vn 0.770487 -0.305048 -0.559729
vn -0.272680 0.467077 -0.841121
vn -0.272680 0.467077 -0.841121
vn -0.272680 0.467077 -0.841121
vn -0.272680 0.467077 -0.841121
vn -0.999998 0.001825 -0.000000
vn -0.999998 0.001825 -0.000000
vn -0.999998 0.001825 -0.000000
vn -0.999998 0.001825 -0.000000
vn -0.273870 -0.464625 0.842092
vn -0.273870 -0.464625 0.842092
vn -0.273870 -0.464625 0.842092
vn -0.273870 -0.464625 0.842092
vn 0.770017 -0.307908 0.558808
vn 0.770017 -0.307908 0.558808
vn 0.770017 -0.307908 0.558808
vn 0.770017 -0.307908 0.558808
vn 0.768595 0.310886 -0.559117
vn 0.768595 0.310886 -0.559117
vn 0.768595 0.310886 -0.559117
vn 0.768595 0.310886 -0.559117
vn -0.707114 0.000000 -0.707100
vn -0.707114 0.000000 -0.707100
vn -0.707114 0.000000 -0.707100
vn -0.707114 0.000000 -0.707100
vn -0.707102 0.000000 0.707111
vn -0.707102 0.000000 0.707111
vn -0.707102 0.000000 0.707111
vn -0.707102 0.000000 0.707111
vn 0.707213 0.000000 0.707000
vn 0.707213 0.000000 0.707000
vn 0.707213 0.000000 0.707000
vn 0.707213 0.000000 0.707000
vn 0.707224 0.000000 -0.706989
vn 0.707224 0.000000 -0.706989
vn 0.707224 0.000000 -0.706989
vn 0.707224 0.000000 -0.706989
s off
g pCylinder37
f 1/1/1 2/2/2 6/3/3 5/4/4
f 2/2/5 3/5/6 7/6/7 6/3/8
f 3/5/9 4/7/10 8/8/11 7/6/12
f 4/7/13 1/1/14 5/4/15 8/8/16
s 1
f 2/2/17 1/1/18 9/9/19
f 3/5/20 2/2/17 9/9/19
f 4/7/21 3/5/20 9/9/19
f 1/1/18 4/7/21 9/9/19
s 2
f 5/4/22 6/3/23 10/10/24
f 6/3/23 7/6/25 10/10/24
f 7/6/25 8/8/26 10/10/24
f 8/8/26 5/4/22 10/10/24
s off
f 11/11/27 12/12/28 17/13/29 16/14/30
f 12/12/31 13/15/32 18/16/33 17/13/34
f 13/15/35 14/17/36 19/18/37 18/16/38
f 14/17/39 15/19/40 20/20/41 19/18/42
f 15/19/43 11/11/44 16/14/45 20/20/46
s 3
f 21/21/47 22/22/48 42/23/49 41/24/50
f 22/22/48 23/25/51 43/26/52 42/23/49
f 23/25/51 24/27/53 44/28/54 43/26/52
f 24/27/53 25/29/55 45/30/56 44/28/54
f 25/29/55 26/31/57 46/32/58 45/30/56
f 26/31/57 27/33/59 47/34/60 46/32/58
f 27/33/59 28/35/61 48/36/62 47/34/60
f 28/35/61 29/37/63 49/38/64 48/36/62
f 29/37/63 30/39/65 50/40/66 49/38/64
f 30/39/65 31/41/67 51/42/68 50/40/66
f 31/41/67 32/43/69 52/44/70 51/42/68
f 32/43/69 33/45/71 53/46/72 52/44/70
f 33/45/71 34/47/73 54/48/74 53/46/72
f 34/47/73 35/49/75 55/50/76 54/48/74
f 35/49/75 36/51/77 56/52/78 55/50/76
f 36/51/77 37/53/79 57/54/80 56/52/78
f 37/53/79 38/55/81 58/56/82 57/54/80
f 38/55/81 39/57/83 59/58/84 58/56/82
f 39/57/83 40/59/85 60/60/86 59/58/84
f 40/59/85 21/21/47 41/24/50 60/60/86
s 4
f 41/24/87 42/23/88 62/61/89 61/62/90
f 42/23/88 43/26/91 63/63/92 62/61/89
f 43/26/91 44/28/93 64/64/94 63/63/92
f 44/28/93 45/30/95 65/65/96 64/64/94
f 45/30/95 46/32/97 66/66/98 65/65/96
f 46/32/97 47/34/99 67/67/100 66/66/98
f 47/34/99 48/36/101 68/68/102 67/67/100
f 48/36/101 49/38/103 69/69/104 68/68/102
f 49/38/103 50/40/105 70/70/106 69/69/104
f 50/40/105 51/42/107 71/71/108 70/70/106
f 51/42/107 52/44/109 72/72/110 71/71/108
f 52/44/109 53/46/111 73/73/112 72/72/110
f 53/46/111 54/48/113 74/74/114 73/73/112
f 54/48/113 55/50/115 75/75/116 74/74/114
f 55/50/115 56/52/117 76/76/118 75/75/116
f 56/52/117 57/54/119 77/77/120 76/76/118
f 57/54/119 58/56/121 78/78/122 77/77/120
f 58/56/121 59/58/123 79/79/124 78/78/122
f 59/58/123 60/60/125 80/80/126 79/79/124
f 60/60/125 41/24/87 61/62/90 80/80/126
s 5
f 35/49/127 34/47/128 94/94/129 95/95/130
f 34/47/128 33/45/131 93/93/132 94/94/129
f 33/45/131 32/43/133 92/92/134 93/93/132
f 32/43/133 31/41/135 91/91/136 92/92/134
f 31/41/135 30/39/137 90/90/138 91/91/136
f 30/39/137 29/37/139 89/89/140 90/90/138
f 29/37/139 28/35/141 88/88/142 89/89/140
f 28/35/141 27/33/143 87/87/144 88/88/142
f 27/33/143 26/31/145 86/86/146 87/87/144
f 26/31/145 25/29/147 85/85/148 86/86/146
f 25/29/147 24/27/149 84/84/150 85/85/148
f 24/27/149 23/25/151 83/83/152 84/84/150
f 23/25/151 22/22/153 82/81/154 83/83/152
f 22/22/153 21/21/155 81/82/156 82/81/154
f 21/21/155 40/59/157 100/100/158 81/82/156
f 40/59/157 39/57/159 99/99/160 100/100/158
f 39/57/159 38/55/161 98/98/162 99/99/160
f 38/55/161 37/53/163 97/97/164 98/98/162
f 37/53/163 36/51/165 96/96/166 97/97/164
f 36/51/165 35/49/127 95/95/130 96/96/166
s off
f 101/101/167 102/102/168 106/103/169 105/104/170
f 102/102/171 103/105/172 107/106/173 106/103/174
f 103/105/175 104/107/176 108/108/177 107/106/178
f 104/107/179 101/101/180 105/104/181 108/108/182
f 109/109/183 110/110/184 113/111/185 112/112/186
f 110/110/187 111/113/188 114/114/189 113/111/190
f 111/113/191 109/109/192 112/112/193 114/114/194
f 110/110/195 109/109/196 115/115/197
f 111/113/198 110/110/199 115/115/200
f 109/109/201 111/113/202 115/115/203
f 112/112/204 113/111/205 116/116/206
f 113/111/207 114/114/208 116/116/209
f 114/114/210 112/112/211 116/116/212
f 117/117/213 118/118/214 122/119/215 121/120/216
f 118/118/217 119/121/218 123/122/219 122/119/220
f 119/121/221 120/123/222 124/124/223 123/122/224
f 120/123/225 117/117/226 121/120/227 124/124/228
f 125/125/229 126/126/230 131/127/231 130/128/232
f 126/126/233 127/129/234 132/130/235 131/127/236
f 127/129/237 128/131/238 133/132/239 132/130/240
f 128/131/241 129/133/242 134/134/243 133/132/244
f 129/133/245 125/125/246 130/128/247 134/134/248
f 135/135/249 136/136/250 141/137/251 140/138/252
f 136/136/253 137/139/254 142/140/255 141/137/256
f 137/139/257 138/141/258 143/142/259 142/140/260
f 138/141/261 139/143/262 144/144/263 143/142/264
f 139/143/265 135/135/266 140/138/267 144/144/268
f 145/145/269 146/146/270 151/147/271 150/148/272
f 146/146/273 147/149/274 152/150/275 151/147/276
f 147/149/277 148/151/278 153/152/279 152/150/280
f 148/151/281 149/153/282 154/154/283 153/152/284
f 149/153/285 145/145/286 150/148/287 154/154/288
f 155/155/289 156/156/290 160/157/291 159/158/292
f 156/156/293 157/159/294 161/160/295 160/157/296
f 157/159/297 158/161/298 162/162/299 161/160/300
f 158/161/301 155/155/302 159/158/303 162/162/304
