# This file uses meters as units for non-parametric coordinates.

g default
v -793.009949 186.062714 -185.023163
v -793.436340 178.306824 -188.240585
v -793.862793 170.551025 -185.023163
v -794.039429 167.338409 -177.255600
v -793.862793 170.551025 -169.488022
v -793.436340 178.306824 -166.270584
v -793.009949 186.062714 -169.488022
v -792.833313 189.275269 -177.255600
v -797.939758 192.028564 -190.709412
v -798.678345 178.595093 -196.282166
v -799.416992 165.161530 -190.709412
v -799.722961 159.597168 -177.255600
v -799.416992 165.161530 -163.801773
v -798.678345 178.595093 -158.229034
v -797.939758 192.028564 -163.801773
v -797.633850 197.592987 -177.255600
v -805.055542 194.504272 -192.790695
v -805.908386 178.992584 -199.225586
v -806.761230 163.480896 -192.790695
v -807.114502 157.055725 -177.255600
v -806.761230 163.480896 -161.720474
v -805.908386 178.992584 -155.285599
v -805.055542 194.504272 -161.720459
v -804.702271 200.929413 -177.255600
v -814.107056 192.917450 -190.709412
v -814.845642 179.483978 -196.282166
v -815.584229 166.050476 -190.709412
v -815.890198 160.486115 -177.255600
v -815.584229 166.050476 -163.801773
v -814.845642 179.483978 -158.229034
v -814.107056 192.917450 -163.801773
v -813.801086 198.481842 -177.255600
v -819.871765 187.539581 -185.023163
v -820.298218 179.783783 -188.240585
v -820.724609 172.027893 -185.023163
v -820.901245 168.815308 -177.255600
v -820.724609 172.027893 -169.488022
v -820.298218 179.783783 -166.270584
v -819.871765 187.539581 -169.488022
v -819.695129 190.752197 -177.255600
v -790.992676 178.172516 -177.255600
v -839.203796 188.602478 -185.023163
v -839.630310 180.846649 -188.240585
v -840.056641 173.090820 -185.023163
v -840.233276 169.878204 -177.255600
v -840.056641 173.090820 -169.488022
v -839.630310 180.846649 -166.270584
v -839.203796 188.602478 -169.488022
v -839.027161 191.815063 -177.255600
v -856.311829 107.051994 -156.791000
v -839.578796 110.577248 -160.822647
v -848.204529 206.722778 -151.825699
v -832.261108 200.539581 -156.679077
v -848.204529 206.722778 -204.473511
v -832.261108 200.539581 -200.613876
v -856.311829 107.051994 -210.478088
v -839.578796 110.577248 -205.624695
v -906.340149 -306.182465 -107.966270
v -878.994995 -308.322662 -127.960876
v -832.161438 796.732971 -95.032364
v -804.816223 794.592773 -116.175224
v -832.161438 796.732971 -480.796509
v -804.816223 794.592773 -467.691589
v -906.340149 -306.182465 -571.335144
v -878.994995 -308.322662 -550.192261
v -916.571045 -321.208832 -40.898533
v -872.367920 -324.668427 -66.990028
v -836.849548 852.524353 -30.569283
v -792.646545 849.064758 -58.159138
v -836.849548 852.524353 -533.962769
v -792.646545 849.064758 -516.861877
v -916.571045 -321.208832 -641.348938
v -872.367920 -324.668427 -613.759033
v -872.368042 -324.668030 -562.453796
v -872.367859 -324.667969 -117.532967
v -796.531677 799.425720 -470.652252
v -796.473877 800.163391 -109.464432
v -839.447327 802.784485 -470.652252
v -915.283630 -321.309174 -562.453796
v -839.389465 803.522156 -109.464432
v -915.283447 -321.309113 -117.532967
v -874.723755 -308.055267 807.917419
v 654.713928 -308.055267 807.917480
v -690.120850 2227.977539 618.035828
v 478.433350 2227.977539 597.386169
v -706.764954 2227.977539 -515.458801
v 478.433167 2227.977539 -536.108276
v -874.723755 -308.055267 -725.990051
v 654.713928 -308.055267 -725.990051
v 664.612976 -236.305450 817.846680
v 664.155334 -236.305511 -736.486877
v -884.622803 -236.305511 -735.919250
v -884.165283 -236.305450 818.414246
v 651.312195 -267.056000 -722.460205
v 651.567810 -267.055969 804.070068
v -871.321899 -267.055969 804.387634
v -871.577454 -267.056000 -722.142700
v 666.496460 -260.322968 820.149963
v 666.192078 -260.322998 -738.600098
v -886.506104 -260.322998 -738.222412
v -886.201843 -260.322968 820.527588
v -905.122498 -229.390991 -758.013550
v 684.596619 -229.390991 -758.654053
v 685.112671 -229.390961 839.941040
v -904.606201 -229.390961 840.581421
v 648.180664 176.755280 332.619232
v 592.118286 866.017700 262.612549
v 592.117981 865.444031 -125.118431
v 652.997986 180.541504 -167.290924
v -904.907043 -229.390991 -90.770325
v -884.431824 -236.305481 -87.150467
v -886.379150 -260.322968 -87.610291
v -871.470947 -267.056000 -84.978806
v -874.723755 -308.055267 -85.746933
v -905.073853 -229.390991 -606.891724
v -884.579468 -236.305511 -588.981750
v -886.477356 -260.322998 -590.867432
v -871.553528 -267.056000 -577.833557
v -874.723877 -308.055267 -580.983398
vt 0.118027 0.290537
vt 0.119784 0.286515
vt 0.124813 0.286459
vt 0.121622 0.294054
vt 0.118182 0.282429
vt 0.121698 0.278832
vt 0.114160 0.280672
vt 0.114102 0.275643
vt 0.110074 0.282274
vt 0.106477 0.278759
vt 0.108317 0.286296
vt 0.103288 0.286353
vt 0.109919 0.290382
vt 0.106402 0.293978
vt 0.113940 0.292139
vt 0.113996 0.297168
vt 0.100170 0.329886
vt 0.105573 0.334392
vt 0.097381 0.323433
vt 0.127299 0.316687
vt 0.127371 0.323419
vt 0.124618 0.329820
vt 0.119256 0.334344
vt 0.112423 0.335987
vt 0.103101 0.327606
vt 0.107176 0.331040
vt 0.101031 0.322664
vt 0.123574 0.317096
vt 0.123780 0.322704
vt 0.121630 0.327631
vt 0.117540 0.331050
vt 0.112357 0.332271
vt 0.104246 0.359910
vt 0.108080 0.359910
vt 0.100411 0.359910
vt 0.127252 0.359910
vt 0.123418 0.359910
vt 0.119583 0.359910
vt 0.115749 0.359910
vt 0.111915 0.359910
vt 0.114051 0.286405
vt 0.104246 0.351080
vt 0.108080 0.351080
vt 0.100411 0.351080
vt 0.127252 0.351080
vt 0.123418 0.351080
vt 0.119583 0.351080
vt 0.115749 0.351080
vt 0.111915 0.351080
vt 0.100762 0.183166
vt 0.104320 0.186826
vt 0.103335 0.231410
vt 0.099353 0.234907
vt 0.125800 0.231410
vt 0.129213 0.234907
vt 0.127806 0.186826
vt 0.131788 0.183166
vt 0.233611 0.182258
vt 0.241446 0.182232
vt 0.240581 0.401683
vt 0.232587 0.401712
vt 0.235754 0.408055
vt 0.321716 0.400997
vt 0.324794 0.407302
vt 0.328727 0.401283
vt 0.338903 0.181407
vt 0.346894 0.181604
vt 0.040812 0.179176
vt 0.052651 0.179176
vt 0.055395 0.415614
vt 0.044941 0.415876
vt 0.055395 0.428961
vt 0.167413 0.415614
vt 0.167413 0.428961
vt 0.178713 0.415876
vt 0.190859 0.178331
vt 0.203656 0.178331
vt 0.156750 0.404985
vt 0.178784 0.178331
vt 0.066699 0.404985
vt 0.065453 0.179176
vt 0.147516 0.391467
vt 0.168326 0.178331
vt 0.076321 0.396559
vt 0.142936 0.396559
vt 0.074977 0.179176
vt 0.075109 0.392012
vt 0.893942 0.044897
vt 0.893942 0.056324
vt 0.032054 0.056324
vt 0.032054 0.044897
vt 0.380328 0.420787
vt 0.377269 0.192123
vt 0.618914 0.193542
vt 0.621994 0.418658
vt 0.893942 0.056324
vt 0.893942 0.044897
vt 0.032054 0.044897
vt 0.032054 0.056324
vt 0.980347 0.422203
vt 0.949413 0.422203
vt 0.980344 0.119979
vt 0.032054 0.056324
vt 0.032054 0.044897
vt 0.893942 0.044897
vt 0.893942 0.056324
vt 0.982026 0.044928
vt 0.982026 0.056355
vt 0.916391 0.056355
vt 0.916391 0.044928
vt 0.723231 0.961277
vt 0.681035 0.451046
vt 0.986201 0.451311
vt 0.941422 0.961070
vt 0.352847 0.451450
vt 0.384105 0.451459
vt 0.333780 0.961379
vt 0.681035 0.451046
vt 0.986201 0.451311
vt 0.941422 0.961070
vt 0.723231 0.961277
vt 0.032054 0.020843
vt 0.893942 0.020843
vt 0.893942 0.020843
vt 0.032054 0.020843
vt 0.982026 0.020874
vt 0.916391 0.020874
vt 0.893942 0.020843
vt 0.032054 0.020843
vt 0.032054 0.067006
vt 0.893942 0.067006
vt 0.893942 0.067006
vt 0.032053 0.067006
vt 0.982026 0.067037
vt 0.916391 0.067037
vt 0.893942 0.067006
vt 0.032054 0.067006
vt 0.893942 0.079312
vt 0.032054 0.079312
vt 0.893942 0.079312
vt 0.032054 0.079312
vt 0.893942 0.079312
vt 0.032054 0.079312
vt 0.982026 0.079343
vt 0.916391 0.079343
vt 0.363437 0.962741
vt 0.413611 0.452516
vt 0.482881 0.735283
vt 0.468400 0.878359
vt 0.648130 0.452510
vt 0.563104 0.735400
vt 0.694189 0.962728
vt 0.571833 0.877666
vt 0.053452 0.451358
vt 0.246093 0.451420
vt 0.099303 0.961589
vt 0.034031 0.144179
vt 0.626337 0.144179
vt 0.626337 0.156485
vt 0.034031 0.156485
vt 0.034031 0.133498
vt 0.626337 0.133498
vt 0.626337 0.122070
vt 0.034031 0.122070
vt 0.626337 0.098017
vt 0.034031 0.098017
vt 0.653122 0.119982
vt 0.843766 0.422204
vt 0.653125 0.422205
vt 0.112425 0.328433
vt 0.108955 0.327643
vt 0.115884 0.327590
vt 0.118606 0.325295
vt 0.120028 0.322050
vt 0.119829 0.318616
vt 0.104764 0.322170
vt 0.106206 0.325391
vt 0.096577 0.359910
vt 0.096577 0.351080
vt 0.114149 0.301401
vt 0.124723 0.296939
vt 0.103518 0.297079
vt 0.099055 0.286507
vt 0.103374 0.275875
vt 0.113947 0.271410
vt 0.124582 0.275730
vt 0.129046 0.286306
vt 0.101438 0.317125
vt 0.105035 0.318801
vt 0.097624 0.316540
vn 0.893500 0.292299 -0.340908
vn 0.874785 -0.048096 -0.482118
vn 0.583074 -0.032058 -0.811786
vn 0.614587 0.541095 -0.574020
vn 0.856068 -0.388494 -0.340910
vn 0.551561 -0.605213 -0.574019
vn 0.848317 -0.529489 -0.000000
vn 0.538509 -0.842620 0.000000
vn 0.856069 -0.388493 0.340910
vn 0.551562 -0.605211 0.574020
vn 0.874785 -0.048096 0.482119
vn 0.583075 -0.032058 0.811786
vn 0.893500 0.292299 0.340908
vn 0.614587 0.541095 0.574020
vn 0.901254 0.433291 -0.000000
vn 0.627639 0.778504 0.000000
vn -0.003124 0.000170 -0.999995
vn 0.035694 0.706210 -0.707102
vn -0.041944 -0.705866 -0.707103
vn -0.058025 -0.998315 0.000001
vn -0.041944 -0.705866 0.707103
vn -0.003124 0.000171 0.999995
vn 0.035694 0.706211 0.707101
vn 0.051773 0.998659 0.000001
vn -0.521554 0.028676 -0.852736
vn -0.488452 0.630741 -0.602976
vn -0.554656 -0.573389 -0.602977
vn -0.568367 -0.822775 0.000000
vn -0.554655 -0.573391 0.602976
vn -0.521554 0.028676 0.852736
vn -0.488451 0.630743 0.602975
vn -0.474740 0.880126 0.000000
vn -0.422443 0.023228 -0.906092
vn -0.387270 0.662964 -0.640703
vn -0.457617 -0.616510 -0.640704
vn -0.472185 -0.881500 0.000000
vn -0.457616 -0.616511 0.640704
vn -0.422441 0.023227 0.906093
vn -0.387269 0.662964 0.640704
vn -0.372702 0.927951 -0.000000
vn 0.998492 -0.054894 -0.000000
vn 0.000000 -0.000000 -1.000000
vn 0.038818 0.706040 -0.707108
vn -0.038819 -0.706039 -0.707108
vn -0.054899 -0.998492 0.000000
vn -0.038819 -0.706040 0.707108
vn -0.000000 -0.000000 1.000000
vn 0.038818 0.706041 0.707107
vn 0.054897 0.998492 0.000000
vn 0.256696 -0.067193 0.964154
vn 0.256696 -0.067193 0.964154
vn 0.256696 -0.067193 0.964154
vn 0.256696 -0.067193 0.964154
vn 0.361583 0.932340 0.000000
vn 0.361583 0.932340 0.000000
vn 0.361583 0.932340 0.000000
vn 0.361583 0.932340 0.000000
vn 0.260135 0.034892 -0.964942
vn 0.260135 0.034892 -0.964942
vn 0.260135 0.034892 -0.964942
vn 0.260135 0.034892 -0.964942
vn 0.206151 -0.978520 0.000000
vn 0.206151 -0.978520 0.000000
vn 0.206151 -0.978520 0.000000
vn 0.206151 -0.978520 0.000000
vn 0.996708 -0.081073 0.000000
vn 0.996708 -0.081073 0.000000
vn 0.996708 -0.081073 0.000000
vn 0.996708 -0.081073 0.000000
vn 0.597930 -0.049181 0.800038
vn 0.597930 -0.049181 0.800038
vn 0.597930 -0.049181 0.800038
vn 0.597930 -0.049181 0.800038
vn 0.078027 0.996951 0.000000
vn 0.078027 0.996951 0.000000
vn 0.078027 0.996951 0.000000
vn 0.078027 0.996951 0.000000
vn 0.532206 0.030576 -0.846063
vn 0.532206 0.030576 -0.846063
vn 0.532206 0.030576 -0.846063
vn 0.532206 0.030576 -0.846062
vn 0.997746 -0.067105 0.000000
vn 0.997746 -0.067105 0.000000
vn 0.997746 -0.067105 0.000000
vn 0.997746 -0.067105 0.000000
vn 0.516157 -0.042040 0.855462
vn 0.516157 -0.042040 0.855462
vn 0.516157 -0.042040 0.855462
vn 0.516157 -0.042040 0.855462
vn 0.078027 0.996951 0.000000
vn 0.078027 0.996951 0.000000
vn 0.078027 0.996951 0.000000
vn 0.078027 0.996951 0.000000
vn 0.453564 0.046644 -0.890002
vn 0.453564 0.046644 -0.890002
vn 0.453564 0.046644 -0.890002
vn 0.453564 0.046644 -0.890002
vn 0.997674 -0.067964 0.005154
vn 0.997502 -0.070536 0.003837
vn 0.997500 -0.070558 0.003826
vn 0.997674 -0.067964 0.005154
vn 0.997531 -0.070122 -0.003818
vn 0.997522 -0.070251 -0.003755
vn 0.997706 -0.067509 -0.005079
vn 0.997706 -0.067509 -0.005079
vn -0.006337 -0.080970 0.996696
vn -0.006337 -0.080970 0.996696
vn -0.006337 -0.080970 0.996696
vn -0.006337 -0.080970 0.996696
vn -0.078026 -0.996949 0.002049
vn -0.078026 -0.996949 0.002049
vn -0.078026 -0.996949 0.002049
vn -0.078026 -0.996949 0.002049
vn 0.000559 0.007135 -0.999974
vn 0.000559 0.007135 -0.999974
vn 0.000559 0.007135 -0.999974
vn 0.000559 0.007135 -0.999974
vn -0.000119 0.347542 -0.937664
vn -0.000285 0.246381 -0.969173
vn -0.000285 0.244361 -0.969684
vn -0.000119 0.349097 -0.937087
vn 0.000000 -1.000000 -0.000000
vn 0.000000 -1.000000 -0.000000
vn 0.000000 -1.000000 -0.000000
vn 0.000000 -1.000000 -0.000000
vn 0.000285 0.244360 0.969685
vn 0.000119 0.349095 0.937087
vn 0.000119 0.347540 0.937665
vn 0.000285 0.246385 0.969172
vn 0.000000 1.000000 -0.000000
vn 0.000000 1.000000 0.000000
vn 0.000000 1.000000 0.000000
vn -0.977715 0.209937 0.000231
vn -0.941964 0.335714 0.000096
vn -0.942582 0.333974 0.000096
vn -0.977248 0.212102 0.000231
vn 0.941739 0.336345 -0.000095
vn 0.976655 0.214816 -0.000231
vn 0.875889 0.482512 -0.000199
vn 0.991584 0.129466 -0.000090
vn 0.007638 -0.094198 0.995524
vn 0.007629 -0.088328 0.996062
vn 0.007629 -0.088301 0.996065
vn 0.007638 -0.094198 0.995524
vn 0.996760 -0.079901 -0.009290
vn 0.997430 -0.071643 -0.000321
vn 0.996572 -0.082105 -0.010122
vn -0.007675 -0.088280 -0.996066
vn -0.007675 -0.088252 -0.996069
vn -0.007684 -0.094198 -0.995524
vn -0.007684 -0.094198 -0.995524
vn -0.996827 -0.079598 0.000083
vn -0.996827 -0.079598 0.000083
vn -0.000104 -0.089605 -0.995977
vn -0.000104 -0.089605 -0.995977
vn 0.997047 -0.076799 -0.000082
vn 0.997047 -0.076799 -0.000082
vn 0.000104 -0.089605 0.995977
vn 0.000104 -0.089605 0.995977
vn -0.775897 0.630860 0.000205
vn -0.777278 0.629157 0.000205
vn 0.000249 0.651220 0.758889
vn 0.000249 0.649782 0.760121
vn 0.776168 0.630526 -0.000205
vn 0.938753 0.344590 -0.000239
vn -0.000249 0.649781 -0.760121
vn -0.000249 0.651218 -0.758891
vn -0.320016 0.947412 0.000099
vn -0.320016 0.947412 0.000099
vn -0.996542 -0.083077 0.001450
vn -0.996539 -0.083122 0.000525
vn -0.996546 -0.083020 0.001717
vn -0.996540 -0.083104 0.001186
vn -0.996509 -0.083479 0.000230
vn -0.996462 -0.084048 0.000588
vn -0.996430 -0.084426 0.000201
vn -0.996441 -0.084292 -0.000131
vn 0.996931 -0.078280 -0.000322
vn 0.996898 -0.078356 -0.007368
vn 0.996528 -0.082790 -0.008785
vn 0.776411 0.630227 -0.000205
vn 0.837672 0.546174 -0.000218
vn 0.977982 0.208688 -0.000231
vn 0.934783 0.355219 -0.000217
vn 0.965652 0.259838 -0.000095
vn 0.942354 0.334618 -0.000096
vn 0.996723 -0.080894 -0.000083
vn 0.996723 -0.080893 -0.000083
vn 0.000000 1.000000 0.000000
vn 0.000000 1.000000 0.000000
vn 0.000000 1.000000 0.000000
s 1
g pSphere3
f 1/1/1 2/2/2 10/3/3 9/4/4
f 2/2/2 3/5/5 11/6/6 10/3/3
f 3/5/5 4/7/7 12/8/8 11/6/6
f 4/7/7 5/9/9 13/10/10 12/8/8
f 5/9/9 6/11/11 14/12/12 13/10/10
f 6/11/11 7/13/13 15/14/14 14/12/12
f 7/13/13 8/15/15 16/16/16 15/14/14
f 8/15/15 1/1/1 9/4/4 16/16/16
f 9/4/4 10/3/3 18/187/17 17/181/18
f 10/3/3 11/6/6 19/186/19 18/187/17
f 11/6/6 12/8/8 20/185/20 19/186/19
f 12/8/8 13/10/10 21/184/21 20/185/20
f 13/10/10 14/12/12 22/183/22 21/184/21
f 14/12/12 15/14/14 23/182/23 22/183/22
f 15/14/14 16/16/16 24/180/24 23/182/23
f 16/16/16 9/4/4 17/181/18 24/180/24
f 17/18/18 18/17/17 26/25/25 25/26/26
f 18/17/17 19/19/19 27/27/27 26/25/25
f 19/19/19 20/190/20 28/188/28 27/27/27
f 20/20/20 21/21/21 29/29/29 28/28/28
f 21/21/21 22/22/22 30/30/30 29/29/29
f 22/22/22 23/23/23 31/31/31 30/30/30
f 23/23/23 24/24/24 32/32/32 31/31/31
f 24/24/24 17/18/18 25/26/26 32/32/32
f 25/26/26 26/25/25 34/177/33 33/171/34
f 26/25/25 27/27/27 35/176/35 34/177/33
f 27/27/27 28/188/28 36/189/36 35/176/35
f 28/28/28 29/29/29 37/174/37 36/175/36
f 29/29/29 30/30/30 38/173/38 37/174/37
f 30/30/30 31/31/31 39/172/39 38/173/38
f 31/31/31 32/32/32 40/170/40 39/172/39
f 32/32/32 25/26/26 33/171/34 40/170/40
f 2/2/2 1/1/1 41/41/41
f 3/5/5 2/2/2 41/41/41
f 4/7/7 3/5/5 41/41/41
f 5/9/9 4/7/7 41/41/41
f 6/11/11 5/9/9 41/41/41
f 7/13/13 6/11/11 41/41/41
f 8/15/15 7/13/13 41/41/41
f 1/1/1 8/15/15 41/41/41
f 33/34/34 34/33/33 43/42/42 42/43/43
f 34/33/33 35/35/35 44/44/44 43/42/42
f 35/35/35 36/178/36 45/179/45 44/44/44
f 36/36/36 37/37/37 46/46/46 45/45/45
f 37/37/37 38/38/38 47/47/47 46/46/46
f 38/38/38 39/39/39 48/48/48 47/47/47
f 39/39/39 40/40/40 49/49/49 48/48/48
f 40/40/40 33/34/34 42/43/43 49/49/49
s off
f 50/50/50 51/51/51 53/52/52 52/53/53
f 52/53/54 53/52/55 55/54/56 54/55/57
f 54/55/58 55/54/59 57/56/60 56/57/61
f 56/57/62 57/56/63 51/51/64 50/50/65
f 51/51/66 57/56/67 55/54/68 53/52/69
f 58/58/70 59/59/71 61/60/72 60/61/73
f 60/62/74 61/60/75 63/63/76 62/64/77
f 62/65/78 63/63/79 65/66/80 64/67/81
f 59/59/82 65/66/83 63/63/84 61/60/85
f 66/68/86 67/69/87 69/70/88 68/71/89
f 68/72/90 69/70/91 71/73/92 70/74/93
f 70/75/94 71/73/95 73/76/96 72/77/97
s 2
f 73/76/98 71/73/99 76/78/100 74/79/101
f 71/73/99 69/70/102 77/80/103 76/78/100
f 69/70/102 67/69/104 75/81/105 77/80/103
s off
f 74/79/106 76/78/107 78/82/108 79/83/109
f 76/78/110 77/80/111 80/84/112 78/85/113
f 77/80/114 75/81/115 81/86/116 80/87/117
s 3
f 96/88/118 101/89/119 98/90/120 95/91/121
s off
f 86/92/122 87/93/123 85/94/124 84/95/125
s 4
f 100/96/126 97/97/127 94/98/128 99/99/129
s 5
f 88/100/130 119/101/131 89/102/132
s 6
f 99/103/133 94/104/134 95/105/135 98/106/136
s 7
f 97/107/137 100/108/138 117/109/139 118/110/140
s 4
f 86/111/141 102/112/142 103/113/143 87/114/144
s 7
f 115/115/145 102/116/146 86/117/147
s 3
f 104/118/148 105/119/149 84/120/150 85/121/151
s 6
f 95/105/135 94/104/134 89/122/152 83/123/153
s 3
f 82/124/154 96/88/118 95/91/121 83/125/155
s 7
f 88/126/156 97/107/137 118/110/140 119/127/157
s 4
f 94/98/128 97/97/127 88/128/158 89/129/159
s 6
f 91/130/160 99/103/133 98/106/136 90/131/161
s 4
f 92/132/162 100/96/126 99/99/129 91/133/163
s 7
f 117/109/139 100/108/138 92/134/164 116/135/165
s 3
f 98/90/120 101/89/119 93/136/166 90/137/167
s 4
f 102/138/142 92/132/162 91/133/163 103/139/143
s 6
f 104/140/168 103/141/169 91/130/160 90/131/161
s 3
f 90/137/167 93/136/166 105/142/149 104/143/148
s 7
f 116/135/165 92/134/164 102/144/146 115/145/145
s 11
f 104/146/170 85/147/171 107/148/172 106/149/173
f 87/150/174 108/151/175 107/148/172 85/147/171
f 87/150/174 103/152/176 109/153/177 108/151/175
f 106/149/173 109/153/177 103/152/176 104/146/170
s 7
f 105/154/178 110/155/179 84/156/180
f 93/157/181 111/158/182 110/159/179 105/160/178
f 101/161/183 112/162/184 111/158/182 93/157/181
f 113/163/185 112/162/184 101/161/183 96/164/186
f 114/165/187 113/163/185 96/164/186 82/166/188
s 5
f 83/167/189 114/168/190 82/169/191
s 7
f 110/155/179 115/115/145 86/117/147 84/156/180
s 5
f 89/102/132 119/101/131 114/168/190 83/167/189
